<svg width="25" height="39" viewBox="0 0 25 39" fill="none" xmlns="http://www.w3.org/2000/svg">
<path d="M11.0049 6.8506C11.1532 5.79296 10.9853 4.71499 10.5224 3.75302C10.0594 2.79104 9.32232 1.98826 8.40421 1.44619C7.4861 0.904122 6.42824 0.647112 5.36441 0.707662C4.30057 0.768212 3.27854 1.1436 2.42755 1.78636C1.57656 2.42912 0.934842 3.31038 0.58354 4.3187C0.232238 5.32702 0.187131 6.41711 0.453924 7.45113C0.720717 8.48514 1.28743 9.41664 2.08239 10.1278C2.87735 10.839 3.86486 11.2979 4.92004 11.4466C6.33467 11.6439 7.76964 11.2709 8.9103 10.4093C10.051 9.54776 10.8042 8.26799 11.0049 6.8506ZM3.32298 5.76846C3.39024 5.28876 3.59791 4.83983 3.91972 4.47843C4.24153 4.11704 4.66303 3.85941 5.13091 3.73812C5.5988 3.61683 6.09207 3.63734 6.54833 3.79704C7.00459 3.95675 7.40336 4.24848 7.69421 4.63535C7.98505 5.02221 8.15492 5.48684 8.18231 5.97047C8.20971 6.4541 8.09342 6.93501 7.84813 7.35239C7.60285 7.76977 7.23959 8.10488 6.8043 8.31533C6.36901 8.52577 5.88123 8.60212 5.40265 8.5347C4.76133 8.44337 4.18229 8.10091 3.79246 7.58238C3.40262 7.06385 3.2338 6.41155 3.32298 5.76846Z" fill="white"/>
<path d="M15.79 9.45784C15.7207 9.38631 15.6436 9.32295 15.56 9.26901C15.3814 9.1474 15.1783 9.06665 14.9651 9.03249C14.751 9.00241 14.5328 9.02001 14.3262 9.08402C14.2315 9.11428 14.1401 9.1538 14.0532 9.20202C11.9013 10.3755 9.88089 11.7767 8.02671 13.3816C3.87815 16.969 1.38606 20.9872 0.822683 25.0051C0.76835 25.3926 0.869819 25.7859 1.10477 26.0984C1.33971 26.4109 1.6889 26.6171 2.0755 26.6715C2.46209 26.726 2.85444 26.6243 3.16623 26.3888C3.47802 26.1533 3.6837 25.8033 3.73803 25.4158C4.3224 21.2481 7.43872 17.7872 9.94332 15.6146C11.3632 14.3927 12.8847 13.2949 14.4912 12.333C16.5665 14.5473 22.1617 21.2356 21.2301 27.8799C21.0437 29.2186 20.5538 30.4968 19.7981 31.6164C19.0424 32.736 18.041 33.6673 16.8706 34.3388C15.7002 35.0104 14.3919 35.4043 13.046 35.4905C11.7001 35.5767 10.3524 35.3528 9.10629 34.836C10.4094 33.9027 11.5098 32.7139 12.341 31.3418C13.1722 29.9696 13.7168 28.4425 13.9418 26.8532C14.3336 24.0589 13.8485 21.0516 12.5044 17.916C12.3468 17.5569 12.0533 17.2753 11.6885 17.1331C11.3238 16.9909 10.9176 16.9998 10.5594 17.1578C10.2011 17.3157 9.92017 17.6099 9.77831 17.9755C9.63645 18.3411 9.6453 18.7482 9.80291 19.1073C10.9205 21.738 11.3456 24.219 11.0301 26.4691C10.8071 27.9992 10.1901 29.4446 9.23991 30.6629C8.28971 31.8811 7.03913 32.8301 5.6115 33.4162C5.48689 33.465 5.36913 33.5298 5.26116 33.6089C5.10569 33.7256 4.9748 33.872 4.87603 34.0397C4.77726 34.2073 4.71258 34.3929 4.6857 34.5857C4.6337 34.9714 4.73351 35.3622 4.96399 35.6753C5.04603 35.788 5.1449 35.8874 5.25714 35.9699C6.88746 37.2466 8.82459 38.0703 10.8735 38.358C12.9224 38.6457 15.0107 38.3872 16.9283 37.6087C18.8459 36.8301 20.525 35.559 21.7965 33.9231C23.0681 32.2873 23.8872 30.3446 24.1715 28.2905C25.4809 18.8723 16.4789 10.1099 15.79 9.45784Z" fill="white"/>
</svg>
