<svg width="170" height="40" viewBox="0 0 170 40" fill="none" xmlns="http://www.w3.org/2000/svg">
<path d="M39.9479 39.0299C39.763 38.846 39.6176 38.6261 39.5208 38.3838C39.424 38.1414 39.3777 37.8818 39.3849 37.6208V37.252C39.3849 36.3151 39.9822 35.6696 41.177 35.3155C41.4908 35.2474 41.7838 35.1051 42.0316 34.9004C42.2793 34.6957 42.4746 34.4346 42.6012 34.1388C42.8256 33.3906 42.9263 32.6106 42.8993 31.8298V16.0021C42.8916 15.7199 42.9405 15.4391 43.0428 15.1762C43.1452 14.9133 43.2991 14.6736 43.4954 14.4713C43.8995 14.0763 44.4416 13.8553 45.0061 13.8553C45.5705 13.8553 46.1126 14.0763 46.5167 14.4713C46.713 14.6736 46.8669 14.9133 46.9693 15.1762C47.0717 15.4391 47.1205 15.7199 47.1129 16.0021V33.0433C47.1404 34.2369 46.8817 35.4196 46.3585 36.4921C45.8941 37.4332 45.1765 38.2253 44.2866 38.779C43.4016 39.3231 42.3808 39.6045 41.3426 39.5905C41.0844 39.5967 40.8276 39.5501 40.5878 39.4538C40.3481 39.3574 40.1303 39.2132 39.9479 39.0299ZM47.1975 9.47328C47.1975 9.911 47.068 10.3389 46.8254 10.7028C46.5828 11.0668 46.2379 11.3505 45.8345 11.518C45.431 11.6855 44.9871 11.7293 44.5587 11.6439C44.1304 11.5585 43.737 11.3477 43.4282 11.0382C43.1194 10.7287 42.9091 10.3344 42.8239 9.90504C42.7387 9.47573 42.7825 9.03074 42.9496 8.62634C43.1167 8.22194 43.3997 7.8763 43.7628 7.63311C44.1259 7.38993 44.5528 7.26013 44.9895 7.26013C45.5751 7.26013 46.1367 7.4933 46.5508 7.90835C46.9649 8.32339 47.1975 8.88632 47.1975 9.47328V9.47328Z" fill="#424242"/>
<path d="M68.1404 14.1024C68.3411 14.3056 68.4979 14.548 68.6011 14.8145C68.7042 15.081 68.7516 15.366 68.7403 15.6516V30.5461C68.7482 30.8286 68.6992 31.1098 68.5962 31.3728C68.4931 31.6359 68.3381 31.8753 68.1404 32.0769C67.9454 32.2789 67.7105 32.438 67.4507 32.5441C67.1909 32.6501 66.912 32.7008 66.6316 32.6929C66.3548 32.7029 66.079 32.655 65.8217 32.5521C65.5644 32.4492 65.3314 32.2936 65.1375 32.0953C64.747 31.6872 64.5271 31.1448 64.523 30.5793C63.8198 31.3467 62.9672 31.9616 62.0179 32.386C61.0685 32.8104 60.0424 33.0353 59.003 33.047C57.4497 33.0644 55.9248 32.63 54.6127 31.7965C53.2832 30.9414 52.2089 29.7422 51.5031 28.3256C50.7243 26.7637 50.3329 25.0365 50.3623 23.2907C50.3334 21.5418 50.7194 19.8111 51.4884 18.241C52.1747 16.8179 53.2376 15.6109 54.5612 14.7516C55.8438 13.9214 57.3401 13.4842 58.8668 13.4938C59.9518 13.4884 61.0268 13.7016 62.0279 14.1209C62.9461 14.4886 63.7912 15.0183 64.523 15.6848V15.6516C64.5149 15.3695 64.5636 15.0885 64.666 14.8256C64.7684 14.5626 64.9225 14.323 65.1191 14.1209C65.3134 13.916 65.5484 13.7543 65.8089 13.6463C66.0695 13.5383 66.3498 13.4863 66.6316 13.4938C66.9113 13.4865 67.1894 13.5367 67.4489 13.6414C67.7085 13.7461 67.9438 13.903 68.1404 14.1024V14.1024ZM63.2571 27.5104C64.2406 26.3346 64.7545 24.8352 64.6996 23.3017C64.7519 21.7642 64.2385 20.2611 63.2571 19.0783C62.7956 18.5478 62.2261 18.1225 61.5868 17.8311C60.9476 17.5397 60.2535 17.3889 59.5513 17.3889C58.8491 17.3889 58.155 17.5397 57.5158 17.8311C56.8765 18.1225 56.307 18.5478 55.8455 19.0783C54.8654 20.2616 54.3533 21.7647 54.4067 23.3017C54.3508 24.8322 54.8576 26.3299 55.8308 27.5104C56.2812 28.0529 56.8491 28.4853 57.4912 28.7748C58.1333 29.0643 58.8328 29.2034 59.5366 29.1813C60.2423 29.2018 60.9434 29.0622 61.5877 28.7728C62.2319 28.4835 62.8026 28.0519 63.2571 27.5104V27.5104Z" fill="#424242"/>
<path d="M87.6591 15.6332C88.5718 17.0545 89.0281 19.0217 89.0281 21.5349V30.5461C89.0357 30.8282 88.9869 31.109 88.8845 31.3719C88.7821 31.6348 88.6282 31.8745 88.4319 32.0769C88.0278 32.4718 87.4857 32.6929 86.9213 32.6929C86.3568 32.6929 85.8148 32.4718 85.4106 32.0769C85.2143 31.8745 85.0604 31.6348 84.9581 31.3719C84.8557 31.109 84.8068 30.8282 84.8145 30.5461V21.5312C84.8145 20.2402 84.5422 19.2258 84.0049 18.4844C83.4676 17.743 82.5329 17.3779 81.2302 17.3779C79.9274 17.3779 78.805 17.7689 78.0322 18.5545C77.6481 18.9462 77.3472 19.412 77.148 19.9237C76.9487 20.4353 76.8552 20.9822 76.873 21.5312V30.5461C76.8807 30.8282 76.8318 31.109 76.7295 31.3719C76.6271 31.6348 76.4732 31.8745 76.2769 32.0769C75.8728 32.4718 75.3307 32.6929 74.7662 32.6929C74.2018 32.6929 73.6597 32.4718 73.2556 32.0769C73.0593 31.8745 72.9054 31.6348 72.803 31.3719C72.7006 31.109 72.6518 30.8282 72.6594 30.5461V16.002C72.6518 15.7199 72.7006 15.4391 72.803 15.1762C72.9054 14.9133 73.0593 14.6736 73.2556 14.4713C73.6597 14.0763 74.2018 13.8552 74.7662 13.8552C75.3307 13.8552 75.8728 14.0763 76.2769 14.4713C76.4732 14.6736 76.6271 14.9133 76.7295 15.1762C76.8318 15.4391 76.8807 15.7199 76.873 16.002V16.6033C77.5487 15.7206 78.39 14.9788 79.3497 14.4196C80.3616 13.8063 81.5233 13.4858 82.7058 13.4938C85.0954 13.4938 86.7465 14.2069 87.6591 15.6332Z" fill="#424242"/>
<path d="M110.129 14.1024C110.329 14.3061 110.485 14.5486 110.589 14.815C110.692 15.0814 110.74 15.3661 110.729 15.6516V31.3207C110.729 34.183 109.845 36.3015 108.076 37.6761C106.307 39.0507 104.065 39.7368 101.349 39.7343C100.373 39.6966 99.4029 39.5731 98.4489 39.3655C97.5547 39.2225 96.6777 38.9864 95.8324 38.661C94.6843 38.1667 94.1102 37.488 94.1102 36.6175C94.1161 36.4249 94.1521 36.2345 94.2169 36.0531C94.3259 35.5902 94.5847 35.1765 94.9529 34.8765C95.262 34.6156 95.6528 34.472 96.0569 34.4707C96.2846 34.4682 96.511 34.5043 96.7267 34.5777C96.8187 34.5998 97.4001 34.8175 98.4636 35.2269C99.3849 35.6071 100.368 35.8159 101.363 35.8429C103.096 35.8429 104.39 35.4974 105.246 34.8064C105.675 34.4491 106.014 33.9961 106.236 33.4836C106.459 32.9711 106.558 32.4135 106.527 31.8555V30.192C105.902 31.0144 105.104 31.6883 104.19 32.1654C103.163 32.7483 102.002 33.051 100.823 33.0433C99.2416 33.0604 97.6883 32.6268 96.3439 31.7928C94.9877 30.9486 93.8881 29.7482 93.1644 28.3219C92.3733 26.7637 91.9753 25.035 92.0052 23.287C91.9756 21.5364 92.3669 19.8044 93.146 18.2373C93.849 16.8093 94.9297 15.6023 96.2703 14.7479C97.5868 13.9179 99.1127 13.4828 100.668 13.4938C101.822 13.4834 102.963 13.7356 104.006 14.2315C104.947 14.6604 105.795 15.2708 106.501 16.0279V15.659C106.493 15.3768 106.541 15.0959 106.644 14.8329C106.746 14.57 106.9 14.3303 107.097 14.1282C107.292 13.9206 107.528 13.7567 107.791 13.6474C108.053 13.538 108.336 13.4857 108.62 13.4938C108.9 13.4865 109.178 13.5367 109.438 13.6414C109.697 13.7461 109.933 13.903 110.129 14.1024V14.1024ZM105.194 27.5104C106.209 26.3492 106.743 24.8441 106.688 23.3017C106.74 21.7553 106.207 20.2465 105.194 19.0783C104.706 18.546 104.113 18.1211 103.452 17.8304C102.791 17.5397 102.078 17.3896 101.356 17.3896C100.635 17.3896 99.9209 17.5397 99.2602 17.8304C98.5996 18.1211 98.0063 18.546 97.5179 19.0783C96.5184 20.2526 95.9933 21.7591 96.0459 23.3017C95.9909 24.8403 96.5165 26.343 97.5179 27.5104C98.0092 28.0378 98.6034 28.4583 99.2637 28.7458C99.924 29.0333 100.636 29.1817 101.356 29.1817C102.076 29.1817 102.788 29.0333 103.448 28.7458C104.109 28.4583 104.703 28.0378 105.194 27.5104Z" fill="#424242"/>
<path d="M130.498 30.5793C130.501 30.8609 130.441 31.1396 130.323 31.3949C130.204 31.6502 130.03 31.8757 129.814 32.0548C129.414 32.4314 128.89 32.6457 128.342 32.656C128.048 32.6588 127.758 32.5971 127.491 32.4754C127.224 32.3537 126.987 32.1749 126.796 31.9515L120.485 25.2641L118.762 26.8465V30.5351C118.77 30.8172 118.721 31.098 118.619 31.3609C118.516 31.6238 118.363 31.8635 118.166 32.0658C117.762 32.4608 117.22 32.6819 116.656 32.6819C116.091 32.6819 115.549 32.4608 115.145 32.0658C114.949 31.8635 114.795 31.6238 114.692 31.3609C114.59 31.098 114.541 30.8172 114.549 30.5351V8.77246C114.541 8.49036 114.59 8.20962 114.693 7.94674C114.795 7.68386 114.949 7.44415 115.145 7.2417C115.549 6.84673 116.091 6.62567 116.656 6.62567C117.22 6.62567 117.762 6.84673 118.166 7.2417C118.362 7.44415 118.516 7.68386 118.619 7.94674C118.721 8.20962 118.77 8.49036 118.762 8.77246V21.8116L126.281 14.5229C126.48 14.3138 126.72 14.1475 126.986 14.034C127.252 13.9205 127.538 13.8622 127.826 13.8627C128.09 13.8668 128.351 13.9272 128.59 14.0398C128.829 14.1523 129.042 14.3145 129.214 14.5156C129.584 14.8576 129.805 15.332 129.828 15.8361C129.814 16.143 129.732 16.443 129.59 16.7151C129.448 16.9872 129.248 17.2247 129.004 17.4111L123.683 22.3058L129.828 28.9859C130.04 29.1937 130.208 29.4416 130.323 29.7152C130.438 29.9887 130.497 30.2825 130.498 30.5793V30.5793Z" fill="#424242"/>
<path d="M149.663 14.1024C149.863 14.3063 150.019 14.5489 150.121 14.8153C150.224 15.0817 150.271 15.3663 150.26 15.6516V30.5461C150.267 30.8282 150.218 31.109 150.116 31.372C150.014 31.6349 149.86 31.8745 149.663 32.0769C149.466 32.2804 149.229 32.4404 148.967 32.5465C148.704 32.6525 148.423 32.7024 148.14 32.6929C147.867 32.6996 147.595 32.6501 147.342 32.5473C147.089 32.4445 146.859 32.2907 146.668 32.0953C146.277 31.6872 146.057 31.1448 146.053 30.5793C145.35 31.3467 144.498 31.9616 143.548 32.386C142.599 32.8104 141.573 33.0353 140.533 33.047C138.98 33.065 137.455 32.6306 136.143 31.7965C134.812 30.9435 133.737 29.7438 133.034 28.3256C132.252 26.7646 131.859 25.037 131.889 23.2907C131.86 21.5418 132.246 19.8111 133.015 18.241C133.701 16.8179 134.764 15.6109 136.088 14.7516C137.369 13.9223 138.864 13.4852 140.39 13.4938C141.474 13.4849 142.549 13.6944 143.551 14.1098C144.468 14.4784 145.311 15.0081 146.042 15.6738V15.6406C146.034 15.3581 146.083 15.0768 146.186 14.8137C146.289 14.5507 146.444 14.3112 146.642 14.1098C146.835 13.9084 147.068 13.7497 147.326 13.6436C147.584 13.5376 147.861 13.4865 148.14 13.4938C148.422 13.4849 148.703 13.5343 148.965 13.6391C149.227 13.7438 149.465 13.9015 149.663 14.1024V14.1024ZM144.78 27.5104C145.762 26.3341 146.275 24.8347 146.219 23.3018C146.272 21.7647 145.76 20.2616 144.78 19.0783C144.328 18.5321 143.757 18.0962 143.112 17.8035C142.467 17.5108 141.764 17.3691 141.056 17.389C140.355 17.3723 139.659 17.5157 139.022 17.8084C138.384 18.1011 137.821 18.5354 137.376 19.0783C136.394 20.2611 135.881 21.7642 135.933 23.3018C135.875 24.8312 136.38 26.3288 137.35 27.5104C137.801 28.0524 138.369 28.4846 139.011 28.7741C139.653 29.0636 140.352 29.2028 141.056 29.1813C141.762 29.2013 142.464 29.0614 143.108 28.7721C143.753 28.4829 144.325 28.0516 144.78 27.5104Z" fill="#424242"/>
<path d="M169.399 14.4713C169.597 14.6728 169.752 14.9123 169.855 15.1753C169.958 15.4384 170.007 15.7196 169.999 16.0021V24.9469C169.999 27.4822 169.302 29.4654 167.909 30.8965C166.515 32.3277 164.531 33.0433 161.955 33.0433C159.379 33.0433 157.4 32.3265 156.019 30.8929C154.638 29.4592 153.946 27.476 153.943 24.9432V16.0021C153.935 15.7196 153.984 15.4384 154.087 15.1753C154.19 14.9123 154.345 14.6728 154.543 14.4713C154.947 14.0763 155.489 13.8553 156.054 13.8553C156.618 13.8553 157.16 14.0763 157.564 14.4713C157.761 14.6736 157.915 14.9133 158.017 15.1762C158.119 15.4391 158.168 15.7199 158.161 16.0021V24.9469C158.161 26.378 158.477 27.4403 159.11 28.1338C159.739 28.8273 160.689 29.1703 161.955 29.1703C163.221 29.1703 164.203 28.8273 164.836 28.1338C165.469 27.4403 165.782 26.378 165.782 24.9469V16.0021C165.774 15.7196 165.823 15.4384 165.926 15.1753C166.029 14.9123 166.184 14.6728 166.382 14.4713C166.785 14.0766 167.327 13.8556 167.89 13.8556C168.454 13.8556 168.996 14.0766 169.399 14.4713V14.4713Z" fill="#424242"/>
<path d="M15.0049 6.85062C15.1532 5.79298 14.9853 4.71501 14.5224 3.75303C14.0594 2.79106 13.3223 1.98828 12.4042 1.44621C11.4861 0.90414 10.4282 0.64713 9.36439 0.70768C8.30056 0.76823 7.27852 1.14362 6.42754 1.78638C5.57655 2.42914 4.93483 3.3104 4.58353 4.31872C4.23223 5.32704 4.18712 6.41713 4.45391 7.45114C4.7207 8.48516 5.28741 9.41666 6.08238 10.1278C6.87734 10.839 7.86485 11.298 8.92003 11.4466C10.3347 11.6439 11.7696 11.2709 12.9103 10.4093C14.0509 9.54778 14.8042 8.26801 15.0049 6.85062V6.85062ZM7.32297 5.76848C7.39023 5.28878 7.5979 4.83985 7.91971 4.47845C8.24151 4.11706 8.66301 3.85942 9.1309 3.73814C9.59879 3.61685 10.0921 3.63736 10.5483 3.79706C11.0046 3.95677 11.4033 4.2485 11.6942 4.63537C11.985 5.02223 12.1549 5.48686 12.1823 5.97049C12.2097 6.45412 12.0934 6.93503 11.8481 7.35241C11.6028 7.76979 11.2396 8.10489 10.8043 8.31534C10.369 8.52579 9.88122 8.60214 9.40264 8.53472C8.76132 8.44339 8.18228 8.10093 7.79244 7.5824C7.40261 7.06386 7.23378 6.41157 7.32297 5.76848V5.76848Z" fill="#ED515B"/>
<path d="M19.7899 9.45786C19.7207 9.38633 19.6436 9.32297 19.56 9.26902C19.3814 9.14741 19.1783 9.06667 18.9651 9.03251C18.751 9.00243 18.5328 9.02002 18.3262 9.08404C18.2315 9.11429 18.1401 9.15381 18.0532 9.20203C15.9012 10.3755 13.8809 11.7767 12.0267 13.3816C7.87813 16.969 5.38604 20.9872 4.82267 25.0051C4.76833 25.3926 4.8698 25.7859 5.10475 26.0984C5.3397 26.4109 5.68888 26.6171 6.07548 26.6715C6.46208 26.726 6.85443 26.6243 7.16621 26.3888C7.478 26.1533 7.68368 25.8033 7.73802 25.4158C8.32239 21.2481 11.4387 17.7872 13.9433 15.6146C15.3632 14.3928 16.8847 13.2949 18.4912 12.333C20.5665 14.5473 26.1617 21.2357 25.2301 27.8799C25.0437 29.2187 24.5538 30.4968 23.7981 31.6164C23.0424 32.736 22.041 33.6673 20.8706 34.3388C19.7001 35.0104 18.3918 35.4043 17.046 35.4905C15.7001 35.5767 14.3524 35.3528 13.1063 34.836C14.4094 33.9027 15.5098 32.7139 16.341 31.3418C17.1722 29.9696 17.7168 28.4426 17.9417 26.8532C18.3335 24.0589 17.8485 21.0517 16.5044 17.916C16.3467 17.5569 16.0533 17.2753 15.6885 17.1331C15.3238 16.9909 14.9176 16.9998 14.5593 17.1578C14.2011 17.3157 13.9202 17.6099 13.7783 17.9755C13.6364 18.3411 13.6453 18.7482 13.8029 19.1073C14.9205 21.738 15.3456 24.2191 15.0301 26.4691C14.8071 27.9992 14.1901 29.4446 13.2399 30.6629C12.2897 31.8811 11.0391 32.8301 9.61148 33.4162C9.48687 33.465 9.36911 33.5298 9.26115 33.6089C9.10567 33.7257 8.97478 33.872 8.87602 34.0397C8.77725 34.2073 8.71256 34.3929 8.68568 34.5857C8.63368 34.9714 8.73349 35.3622 8.96398 35.6753C9.04601 35.788 9.14489 35.8874 9.25713 35.9699C10.8874 37.2466 12.8246 38.0703 14.8735 38.358C16.9224 38.6457 19.0107 38.3873 20.9283 37.6087C22.8459 36.8302 24.5249 35.559 25.7965 33.9231C27.0681 32.2873 27.8872 30.3446 28.1715 28.2905C29.4809 18.8724 20.4789 10.1099 19.7899 9.45786Z" fill="#ED515B"/>
</svg>
